Patient4_TMGait_0pt4_03_right_13_EMG.mot
version=1
nRows=26
nColumns=33
inDegrees=no
endheader
time	1LAddLong	2LGlutMax	3LGlutMed	4LIliopsoas	5LSemiMemb	6LBicFemLong	7LRecFem	8LVastMed	9LVastLat	10LGasMed	11LTibAnt	12lTibPost	13LPeroneusLong	14LSol	15LExtDigLong	16LFlexDigLong	17RAddLong	18RGlutMax	19RGlutMed	20RIliopsoas	21RSemiMemb	22RBicFemLong	23RRecFem	24RVastMed	25RVastLat	26RGasMed	27RTibAnt	28RTibPost	29RPeroneusLong	30RSol	31RExtDigLong	32RFlexDigLong
16.577	-0.000916	0.17746	-0.033264	0.016785	0.003052	-0.063477	-0.041962	-0.002441	0.15076	-0.019226	0.097198	0.012817	-0.089722	0.1091	0.19363	-0.051575	0.000305	-0.30609	-0.53406	0.028229	-0.004272	0.035095	0.46646	-0.44647	0.34912	-0.00351	0.016327	0.12863	0.45166	0.73852	-0.005035	-0.006409
16.578	-0.011444	0.17761	-0.0383	0.019531	0.007782	-0.061951	0.04364	-0.001831	0.15884	-0.006866	0.045624	-0.018463	-0.07843	0.081482	0.0383	-0.022278	0.011139	-0.31799	-0.99869	0.14969	0.026855	0.024109	0.36972	-0.32333	0.44617	0.000916	-0.058899	0.027161	-0.53177	0.55985	0.002136	-0.007324
16.579	-0.008545	0.1741	-0.031433	0.021362	0.001984	-0.059357	0.10971	-0.007477	0.15793	-0.024414	-0.092316	-0.00946	-0.024872	0.085754	-0.003662	0.075531	0.022125	-0.29648	-0.75073	0.11414	-0.049438	0.045471	0.40115	-0.32074	0.28854	-0.005646	-0.057373	-0.083313	-0.36057	0.53177	0.001526	-0.018921
16.58	-0.011902	0.12497	-0.036011	0.033264	-0.003357	-0.077057	0.19806	-0.000153	0.15396	-0.03479	-0.039368	-0.012512	-0.030823	0.065155	0.23621	-0.13519	0.050507	-0.3981	-0.086365	-0.060883	-0.27786	0.013123	0.18448	-0.13168	0.013428	-0.010986	0.002899	-0.029449	-1.0704	0.24658	-0.003967	-0.020599
16.581	-0.018311	0.1059	-0.022125	0.029755	-0.001831	-0.068817	0.22888	-0.002747	0.15549	-0.048828	-0.007935	-0.010834	-0.030518	0.065002	0.079193	-0.03952	0.072632	-0.43442	1.0052	0.045471	-0.16998	0.003662	-0.0354	-0.23773	-0.33707	-0.004578	-0.000305	0.018311	-1.6205	0.068359	-0.002899	-0.014496
16.582	-0.013885	0.058746	-0.033722	0.012665	-0.003052	-0.052185	0.26871	0.002289	0.14954	-0.084381	0.024109	-0.001221	-0.035706	0.11276	0.24811	0.083313	0.073242	-0.36209	0.54596	0.080414	0.020599	-0.068054	0.13321	-0.14969	-0.56107	-0.006104	0.032196	-0.001221	-0.33615	-0.080872	-0.001831	-0.015259
16.583	-0.01236	-0.047913	-0.056915	0.007019	-0.006256	-0.064392	0.2861	0.007172	0.1474	-0.085297	-0.003815	-0.01236	0.023804	0.11887	-0.25528	0.049133	0.037537	-0.38589	-0.35736	0.1004	0.28458	-0.067444	0.098877	0.21194	-0.4837	-0.011444	-0.005798	-0.019531	0.62729	0.032654	0.007019	-0.018158
16.584	-0.010986	-0.08606	-0.086365	0.008545	-0.003052	-0.071411	0.23071	0.002747	0.15152	-0.046387	0.001678	-0.019989	-0.025635	0.0914	-0.38666	0.01709	-0.041809	-0.35324	-0.40482	0.073395	-0.083313	0.003662	0.16754	0.40848	-0.34119	-0.001678	-0.14862	-0.032349	0.76172	-0.003204	-0.003967	-0.019531
16.585	-0.012512	-0.12909	-0.12131	0.011444	0.001373	-0.051727	0.20203	0.009308	0.13473	-0.020447	0.054016	-0.002747	-0.11215	0.017548	-0.066223	0.000916	-0.018921	-0.36529	-0.19073	-0.050812	-0.32089	0.065155	0.37842	0.43243	-0.23972	-0.003052	-0.19547	-0.039978	0.61386	0.088959	-0.000458	-0.012665
16.586	-0.015259	-0.11002	-0.15686	0.007477	-0.00061	-0.04837	0.25818	0.003357	0.13626	-0.025787	0.067749	0.000305	-0.094452	0.027313	-0.057373	0.005951	0.000763	-0.39719	-0.66223	-0.073547	-0.2243	0.029602	0.46188	0.37521	-0.1268	-0.004272	-0.16098	-0.037537	0.45944	0.12451	-0.001373	-0.015564
16.587	-0.014343	-0.11368	-0.20599	0.006714	-0.005341	-0.049133	0.27573	0.005646	0.13107	-0.035706	0.049591	0.003357	-0.077515	0.083923	-0.059814	0.005188	-0.016937	-0.41306	-1.169	-0.11032	-0.037994	0.074463	0.34897	0.47104	-0.024261	0.003967	-0.098877	-0.032959	0.60288	-0.060577	0.001831	-0.01236
16.588	-0.009003	-0.12207	-0.23483	0.009308	-0.006866	-0.055084	0.16098	0.005798	0.12878	-0.063019	-0.083008	-0.005951	-0.033722	0.065918	-0.038147	0	-0.052185	-0.39795	-1.6516	-0.055389	0.12177	0.027313	0.26123	0.30914	0.30075	0.003967	0.024261	-0.035248	-0.65048	-0.035248	0.002899	-0.014038
16.589	-0.023346	-0.11078	-0.22644	0.018921	-0.006104	-0.046692	0.032959	-0.002136	0.11429	-0.053558	-0.10544	0.003204	-0.017395	0.080109	-0.040131	-0.006561	-0.046539	-0.48065	-1.5007	0.005646	0.007477	0.037537	0.28549	0.083923	0.4689	-0.001678	0.028229	-0.037231	-0.54565	0.019684	-0.00351	-0.015564
16.59	-0.008087	-0.13657	-0.20355	0.010071	-0.007782	-0.054779	-0.11276	0.007019	0.12787	-0.040436	-0.06012	0.003967	-0.040741	0.027618	-0.13763	-0.01297	-0.041351	-0.439	0.011749	0.005646	-0.089874	-0.028992	0.25696	-0.000763	0.42511	0.001373	0.029144	-0.031281	0.40497	-0.007019	0.001373	-0.016327
16.591	-0.005188	-0.14008	-0.17761	0.014191	-0.011749	-0.036316	-0.26977	0.015564	0.13412	-0.03479	-0.063782	0.003662	-0.040894	-0.022888	-0.15701	-0.017853	-0.013428	-0.43732	0.54764	-0.084381	-0.084076	-0.042725	0.33325	-0.15198	0.28107	-0.001221	0.057526	-0.033417	0.2359	0.015717	-0.003967	-0.010071
16.592	-0.001984	-0.1593	-0.15747	0.005493	-0.002747	-0.045929	-0.21149	0.001221	0.12543	-0.036926	-0.043793	0.003815	-0.035858	-0.027161	-0.07309	-0.019531	-0.005188	-0.41992	-0.29083	-0.14313	-0.072784	-0.024414	0.37888	-0.046844	0.092163	0.001984	0.001678	-0.030823	0.95215	0.011902	-0.004272	-0.007629
16.593	0.001526	-0.18997	-0.12573	0.005188	-0.010223	-0.048523	-0.10971	-0.005798	0.11795	-0.029449	-0.023499	-0.000305	-0.056305	-0.02533	0.027618	-0.017548	0.001221	-0.44113	-1.1514	-0.029755	-0.075378	0.006561	0.33905	-0.085602	-0.13519	-0.010986	-0.028839	-0.021973	0.52612	-0.02594	0.000305	-0.013275
16.594	-0.008545	-0.19058	-0.12192	0.020599	-0.007629	-0.05127	-0.12299	0.006409	0.10437	-0.040131	-0.035095	0.00061	-0.053101	0.005646	0.06485	-0.019379	-0.001068	-0.47363	-2.0732	0.044861	-0.047455	-0.000916	0.40222	-0.05722	-0.2829	-0.018311	0.032806	-0.011597	0.28336	-0.14084	0.001373	-0.021515
16.595	-0.014343	-0.16785	-0.11765	0.01297	-0.005646	-0.048523	-0.046387	-0.019226	0.10025	-0.04303	-0.022736	0.006866	-0.061798	0.019989	0.13886	-0.016174	-0.00473	-0.4866	-0.89829	-0.058441	-0.045319	0.02243	0.39963	-0.079193	-0.45853	-0.018311	0.072174	0.0177	0.23636	-0.14206	0.000763	-0.023499
16.596	-0.006104	-0.17807	-0.11826	0.006714	-0.007324	-0.048981	-0.011749	0.001678	0.073547	-0.039978	-0.028534	-0.000153	-0.063934	0.071106	0.010681	-0.027161	0.018463	-0.52795	-0.54855	0.060883	-0.017548	-0.000763	0.31509	-0.13534	-0.45517	-0.007324	0.06134	0.043182	-0.58929	-0.058746	0.004578	-0.017548
16.597	-0.00351	-0.18799	-0.088806	0.00946	-0.00351	-0.047455	-0.12497	0.019684	0.042572	-0.024109	-0.11368	0.002441	-0.042877	0.046082	-0.076599	-0.011444	0.01709	-0.54474	0.57419	0.10773	0.03006	-0.014496	0.036469	-0.18204	-0.23865	0.006561	-0.10742	-0.18082	-0.76782	-0.045776	-0.003357	-0.013275
16.598	-0.003204	-0.18539	-0.070801	0.006104	-0.003052	-0.029144	-0.067596	0.005188	0.032043	-0.006714	-0.11032	0.004578	-0.065613	-0.016174	-0.015259	-0.017395	0.053711	-0.67444	1.2279	0.121	0.044861	-0.05127	-0.011749	-0.14175	-0.045471	-0.00061	-0.11032	-0.19577	-0.61645	-0.13184	-0.002441	-0.011292
16.599	-0.01297	-0.19608	-0.055542	0.01358	-0.008087	-0.039063	0.13184	0.011139	0.031433	-0.016327	0.026398	-0.001068	-0.092621	0.042877	-0.00824	-0.018921	0.085602	-0.78857	0.083771	0.11017	-0.079346	-0.085449	-0.042725	0.039368	0.24902	-0.014496	0.076599	0.036163	0.8371	-0.18555	0.001831	-0.017395
16.6	-0.009918	-0.16556	-0.092163	0.004425	-0.010834	-0.037231	0.25223	0.023193	0.019989	-0.022583	0.23712	-0.000305	-0.035095	0.046082	0.45731	-0.011292	0.074005	-0.82092	-1.0945	0.028381	-0.43762	-0.0737	-0.015106	0.070953	0.31433	-0.012512	0.13458	0.15243	0.70114	-0.26977	-0.00061	-0.009918
16.601	-0.020599	-0.15671	-0.10208	0.002136	-0.005341	-0.038147	0.2327	0.015259	-0.007324	-0.036774	0.14389	-0.003662	-0.021362	0.062866	0.37506	-0.006866	0.000305	-0.77362	-0.57861	-0.085602	-0.47226	0.015564	-0.13626	0.04776	0.32837	-0.002136	0.029144	0.073547	0.2095	-0.10162	0.003815	-0.015717
16.602	-0.003662	-0.16388	-0.078125	-0.010223	0.000763	-0.038452	0.17334	0.01709	0.001678	-0.03479	0.13367	0.001221	-0.036316	0.12299	0.60349	-0.001831	-0.080414	-0.75165	-0.35736	-0.12161	-0.31906	0.17578	-0.20218	-0.074463	0.10757	0.006104	-0.034027	0.042267	0.11841	0.2417	-0.00061	-0.016785
